<svg xmlns="http://www.w3.org/2000/svg" viewBox="0 0 224.78 44.97"><defs><style>.cls-1{fill:#fff;}.cls-2{fill:#ffb12a;}.cls-3{fill:#ee326c;}.cls-4{fill:#1bb55f;}.cls-5{fill:#80319b;}.cls-6{fill:#25b2e2;}</style></defs><title>imagotipo_fondo_oscuro</title><g id="Capa_2" data-name="Capa 2"><g id="Capa_1-2" data-name="Capa 1"><path class="cls-1" d="M84.11,35.52A13.5,13.5,0,0,1,74,31.46a13.72,13.72,0,0,1-4-10,13.72,13.72,0,0,1,4-10,13.56,13.56,0,0,1,10.08-4,13.82,13.82,0,0,1,6.77,1.72,12.57,12.57,0,0,1,4.85,4.66l-4.59,2.66a7.23,7.23,0,0,0-2.86-2.84,9.26,9.26,0,0,0-10.52,1.45,8.8,8.8,0,0,0-2.42,6.41,8.72,8.72,0,0,0,2.42,6.37,8.44,8.44,0,0,0,6.35,2.47,8.63,8.63,0,0,0,4.19-1,6.9,6.9,0,0,0,2.84-2.8l4.59,2.67A12.7,12.7,0,0,1,90.9,33.8,13.79,13.79,0,0,1,84.11,35.52Z"/><path class="cls-1" d="M104.77,19a5.2,5.2,0,0,1,2.29-2.78,7,7,0,0,1,3.58-.93v5.56a5.88,5.88,0,0,0-4.08.93,4.41,4.41,0,0,0-1.79,4V35h-5V15.67h5Z"/><path class="cls-1" d="M129.94,32.56a10.2,10.2,0,0,1-17.45-7.24,10.22,10.22,0,1,1,20.43,0A9.82,9.82,0,0,1,129.94,32.56Zm-11-3.41a5,5,0,0,0,3.72,1.5,5.1,5.1,0,0,0,3.75-1.5,5.21,5.21,0,0,0,1.5-3.83,5.18,5.18,0,0,0-1.5-3.82A5.11,5.11,0,0,0,122.68,20,5,5,0,0,0,119,21.5a5.22,5.22,0,0,0-1.49,3.82A5.24,5.24,0,0,0,119,29.15Z"/><path class="cls-1" d="M158.48,15.13a6.88,6.88,0,0,1,5.31,2.16,8.24,8.24,0,0,1,2,5.79V35h-5V23.43a4,4,0,0,0-.85-2.7,3,3,0,0,0-2.4-1,3.29,3.29,0,0,0-2.64,1.12,4.92,4.92,0,0,0-.95,3.25V35h-5V23.43a3.92,3.92,0,0,0-.85-2.7,3,3,0,0,0-2.39-1,3.38,3.38,0,0,0-2.65,1.12,4.77,4.77,0,0,0-1,3.25V35h-5V15.67h5v2a6,6,0,0,1,5.36-2.59,5.73,5.73,0,0,1,5.26,2.78A6.51,6.51,0,0,1,158.48,15.13Z"/><path class="cls-1" d="M182,15.13a8.78,8.78,0,0,1,6.66,2.95,10.22,10.22,0,0,1,2.76,7.24,10.21,10.21,0,0,1-2.76,7.24,8.79,8.79,0,0,1-6.66,3,7.47,7.47,0,0,1-6.26-2.82V35h-5V8h5V18A7.47,7.47,0,0,1,182,15.13Zm-4.75,14.11A5.12,5.12,0,0,0,181,30.77a5.21,5.21,0,0,0,3.84-1.53,5.28,5.28,0,0,0,1.53-3.92,5.31,5.31,0,0,0-1.53-3.92A5.24,5.24,0,0,0,181,19.88a5.15,5.15,0,0,0-3.82,1.52,5.34,5.34,0,0,0-1.51,3.92A5.31,5.31,0,0,0,177.21,29.24Z"/><path class="cls-1" d="M198.06,13.35a3.09,3.09,0,0,1-3.05-3,3,3,0,0,1,.9-2.16,2.91,2.91,0,0,1,2.15-.93,2.94,2.94,0,0,1,2.18.93,3,3,0,0,1,.91,2.16,2.93,2.93,0,0,1-.91,2.14A3,3,0,0,1,198.06,13.35ZM195.59,35V15.67h5V35Z"/><path class="cls-1" d="M210,27.37Q211,31,215.47,31a5.09,5.09,0,0,0,4.33-1.93l4,2.31a9.56,9.56,0,0,1-8.41,4.14,10.39,10.39,0,0,1-7.69-2.9,9.89,9.89,0,0,1-2.89-7.3A10,10,0,0,1,207.67,18,9.85,9.85,0,0,1,215,15.13a9.23,9.23,0,0,1,7,2.93,10.2,10.2,0,0,1,2.76,7.26,12.51,12.51,0,0,1-.19,2.05ZM210,23.51h9.85A4.7,4.7,0,0,0,218,20.57a5.06,5.06,0,0,0-3-1,5.24,5.24,0,0,0-3.32,1A4.84,4.84,0,0,0,210,23.51Z"/><path class="cls-2" d="M55,2.5A2.5,2.5,0,0,0,52.47,0h-10a2.5,2.5,0,0,0,0,5h10A2.51,2.51,0,0,0,55,2.5Z"/><path class="cls-3" d="M7.93,5H32.48a2.5,2.5,0,0,0,0-5H21.36A21.59,21.59,0,0,0,7.93,5Z"/><path class="cls-4" d="M40,22.48a2.5,2.5,0,1,0,2.5-2.5A2.5,2.5,0,0,0,40,22.48Z"/><rect class="cls-5" x="34.98" y="9.99" width="14.99" height="5" rx="2.42"/><path class="cls-4" d="M30,42.47A2.5,2.5,0,0,0,27.49,40H8a21.51,21.51,0,0,0,13.4,5h6.13A2.51,2.51,0,0,0,30,42.47Z"/><circle class="cls-3" cx="52.47" cy="42.47" r="2.5"/><path class="cls-3" d="M37.48,40a2.5,2.5,0,1,0,0,5h5a2.5,2.5,0,0,0,0-5Z"/><path class="cls-5" d="M47.48,35a2.5,2.5,0,0,0,0-5H1.14a20.64,20.64,0,0,0,2.39,5Z"/><path class="cls-2" d="M35,22.48h0a2.51,2.51,0,0,0-2.5-2.5H.12C0,20.8,0,21.63,0,22.48S0,24.17.12,25H32.48A2.5,2.5,0,0,0,35,22.48Z"/><path class="cls-6" d="M27.49,15a2.5,2.5,0,0,0,0-5H3.5a21,21,0,0,0-2.37,5Z"/></g></g></svg>